<?xml version="1.0" encoding="utf-8"?>
<!-- Generator: Adobe Illustrator 27.5.0, SVG Export Plug-In . SVG Version: 6.00 Build 0)  -->
<svg version="1.1" xmlns="http://www.w3.org/2000/svg" xmlns:xlink="http://www.w3.org/1999/xlink" x="0px" y="0px"
	 viewBox="0 0 544.25 127.56" style="enable-background:new 0 0 544.25 127.56;" xml:space="preserve">
<style type="text/css">
	.st0{fill:none;}
	.st1{fill:#FFD400;}
	.st2{clip-path:url(#SVGID_00000067922746808024294550000005447337599765002374_);}
	.st3{clip-path:url(#SVGID_00000067922746808024294550000005447337599765002374_);fill:#FFFFFF;}
	.st4{fill:#ED1A3B;}
	.st5{fill:#FFFFFF;}
	.st6{clip-path:url(#SVGID_00000043433748658483629830000008037825413966801552_);}
	.st7{clip-path:url(#SVGID_00000124138351006254061660000014111154675790981022_);fill:#FFFFFF;}
	.st8{clip-path:url(#SVGID_00000127036749859345863810000016767488095900810151_);}
	.st9{clip-path:url(#SVGID_00000127036749859345863810000016767488095900810151_);fill:#FFFFFF;}
</style>
<g id="background">
</g>
<g id="guides">
</g>
<g id="UU_logo">
	<g>
		<rect y="0" class="st5" width="272.13" height="127.56"/>
		<g>
			<g>
				<polygon class="st1" points="68.1,37.76 68.61,37.1 69.47,37 70.13,37.51 74.45,37.51 75.1,37 75.97,37.1 76.48,37.76 
					80.67,38.79 81.43,38.45 82.25,38.76 82.59,39.52 86.41,41.52 87.23,41.37 87.94,41.86 88.09,42.68 91.33,45.55 92.16,45.6 
					92.73,46.25 92.68,47.08 95.13,50.63 95.93,50.88 96.33,51.65 96.09,52.44 97.62,56.49 98.33,56.92 98.54,57.76 98.11,58.47 
					98.63,62.76 99.22,63.35 99.22,64.22 98.63,64.81 98.11,69.09 98.54,69.8 98.33,70.65 97.62,71.08 96.09,75.12 96.34,75.91 
					95.93,76.69 95.14,76.93 92.68,80.49 92.73,81.32 92.16,81.97 91.33,82.02 88.1,84.88 87.95,85.7 87.23,86.2 86.41,86.04 
					82.59,88.05 82.25,88.81 81.43,89.12 80.67,88.78 76.48,89.81 75.97,90.47 75.11,90.57 74.45,90.06 70.13,90.06 69.48,90.57 
					68.61,90.47 68.1,89.81 63.9,88.78 63.15,89.12 62.33,88.81 61.99,88.05 58.17,86.05 57.35,86.2 56.63,85.7 56.48,84.88 
					53.25,82.02 52.42,81.97 51.84,81.32 51.89,80.49 49.44,76.94 48.65,76.69 48.24,75.92 48.49,75.12 46.96,71.08 46.24,70.66 
					46.04,69.81 46.47,69.1 45.94,64.81 45.36,64.22 45.36,63.35 45.94,62.76 46.46,58.48 46.03,57.76 46.24,56.92 46.95,56.49 
					48.49,52.45 48.24,51.66 48.64,50.88 49.44,50.64 51.89,47.08 51.84,46.25 52.42,45.6 53.25,45.55 56.48,42.69 56.63,41.87 
					57.35,41.37 58.16,41.52 61.99,39.52 62.33,38.76 63.15,38.45 63.9,38.79 				"/>
				<g>
					<defs>
						<path id="SVGID_00000132794970806400690290000013646749721155199165_" d="M72.29,90.72c14.87,0,26.93-12.06,26.93-26.93
							c0-14.87-12.06-26.93-26.93-26.93c-14.88,0-26.93,12.06-26.93,26.93C45.35,78.66,57.41,90.72,72.29,90.72z"/>
					</defs>
					<clipPath id="SVGID_00000060747314472391219870000017867728981699250609_">
						<use xlink:href="#SVGID_00000132794970806400690290000013646749721155199165_"  style="overflow:visible;"/>
					</clipPath>
					<path style="clip-path:url(#SVGID_00000060747314472391219870000017867728981699250609_);" d="M75.14,36.77l-2.86,16.24
						l-2.86-16.24 M75.98,36.87l-1.11,16.45l6.66-15.08 M82.31,38.54L77.3,54.25l10.07-13.05 M88.06,41.67l-8.63,14.05l12.9-10.26
						 M92.89,46.09L81.16,57.67l14.98-6.88 M96.53,51.54l-14.17,8.43l16.19-3.09 M98.76,57.69l-15.77,4.79l16.46,0.88 M99.45,64.2
						l-16.46,0.88l15.77,4.79 M98.56,70.69L82.36,67.6l14.17,8.43 M96.14,76.78l-14.98-6.88l11.74,11.57 M92.34,82.11l-12.9-10.26
						l8.63,14.05 M87.37,86.38L77.3,73.33l5.02,15.71 M75.14,90.79l-2.86-16.24l-2.86,16.24 M68.6,90.69l1.11-16.45l-6.66,15.08
						 M62.27,89.03l5.02-15.71L57.21,86.38 M56.51,85.9l8.63-14.05L52.24,82.11 M51.68,81.48l11.74-11.57l-14.99,6.88 M48.05,76.03
						l14.17-8.43l-16.19,3.09 M45.82,69.88l15.77-4.79L45.13,64.2 M45.13,63.36l16.46-0.88l-15.77-4.79 M46.02,56.88l16.19,3.09
						l-14.17-8.43 M48.44,50.79l14.99,6.88L51.68,46.09 M52.24,45.46l12.91,10.26l-8.63-14.05 M57.21,41.19l10.07,13.05l-5.02-15.71
						 M63.05,38.24l6.66,15.08L68.6,36.87 M81.53,89.33l-6.66-15.08l1.11,16.45"/>
					<path style="clip-path:url(#SVGID_00000060747314472391219870000017867728981699250609_);fill:#FFFFFF;" d="M90.13,43.41
						l-2.04,2.35c0.42,0.37,0.83,0.75,1.22,1.14l-0.61,0.6c-0.6-0.6-1.22-1.17-1.88-1.7l2.51-3.07 M97.42,53.68l-3.7,1.48
						c0.12,0.28,0.23,0.58,0.33,0.86l3.75-1.33 M99.28,61.55l-3.07-0.62l0-0.01l2.84-1.29l-0.18-1.04l-3.71,1.93
						c0.05,0.36,0.09,0.72,0.13,1.08l4.05,0.95 M98.12,71.93l-0.95-0.3c-0.1,0.31-0.2,0.61-0.31,0.92l-2.81-1.01
						c-0.1,0.28-0.21,0.58-0.32,0.86l2.76,1.12c-0.12,0.31-0.25,0.61-0.38,0.91l0.92,0.41 M94.88,78.73l-3.32-2.21
						c-0.16,0.25-0.35,0.52-0.52,0.76l3.22,2.33 M91.37,83.01l-0.7-0.71c-0.23,0.23-0.46,0.45-0.7,0.67l-2.02-2.2
						c-0.22,0.2-0.46,0.42-0.69,0.61l1.93,2.27c-0.25,0.21-0.51,0.42-0.76,0.63l0.62,0.78 M85.34,87.52l-1.92-3.5
						c-0.26,0.15-0.54,0.29-0.81,0.43l1.78,3.57 M76.81,90.49l-0.16-0.99c0.52-0.09,1.04-0.19,1.62-0.33l-0.16-0.65
						c-0.52,0.12-0.98,0.21-1.44,0.29l-0.13-0.76c0.44-0.08,0.88-0.17,1.38-0.28l-0.17-0.66c-0.53,0.12-1.01,0.22-1.49,0.3
						l-0.14-0.84c0.78-0.13,1.55-0.3,2.32-0.52l0.29,1.01c0.42-0.12,0.83-0.24,1.23-0.38l0.2-0.78l0.6,1.35l-0.78,2.5 M79.34,89.15
						l0.42-1.59c-0.28,0.09-0.57,0.17-0.84,0.25l0.37,1.35L79.34,89.15z M66.35,90.22l0.88-3.89c-0.3-0.07-0.61-0.14-0.9-0.22
						l-1.03,3.85 M60.81,88.32l1.7-3.6c-0.77-0.36-1.51-0.76-2.24-1.2l-0.44,0.73c0.48,0.29,0.96,0.56,1.46,0.82l-1.43,2.78
						 M55.27,84.85l2.5-3.08c-0.66-0.53-1.29-1.1-1.88-1.7l-0.61,0.6c0.39,0.4,0.8,0.78,1.22,1.14l-2.05,2.34 M49.44,78.33l3-0.88
						l0.01,0.01l-1.91,2.46l0.65,0.83l2.38-3.43c-0.21-0.29-0.42-0.59-0.62-0.89l-4.03,1.04 M45.63,68.59l0.98-0.18
						c-0.06-0.32-0.11-0.64-0.15-0.95l2.95-0.42c-0.04-0.3-0.08-0.62-0.11-0.91l-2.96,0.3c-0.03-0.33-0.06-0.66-0.08-0.99
						l-0.99,0.06 M45.21,62.14l4.01,0.23c0.02-0.31,0.04-0.61,0.07-0.92l-1.49-0.15c0-0.03,0.01-0.1,0.02-0.15
						c0.05-0.27,0.37-0.47,0.72-0.6c0.28-0.11,0.9-0.27,0.9-0.27c0.05-0.35,0.1-0.68,0.19-1.03c0,0-1.05,0.36-1.43,0.58
						c-0.24,0.14-0.38,0.21-0.52,0.38l-0.02,0c-0.01-0.61-0.37-1-0.95-1.04c-0.7-0.05-1.07,0.58-1.17,1.35l-0.17-0.01 M46.77,60.19
						c0.39,0.04,0.44,0.41,0.41,0.65c-0.02,0.14-0.03,0.3-0.05,0.43l-0.95-0.1c0.02-0.16,0.02-0.3,0.04-0.45
						C46.25,60.32,46.45,60.15,46.77,60.19z M46.79,54.63l3.26,2.88c0.09-0.33,0.19-0.66,0.3-0.98l-0.71-0.57
						c0.15-0.43,0.31-0.85,0.48-1.27l0.91,0.04c0.14-0.32,0.29-0.65,0.44-0.97l-4.3-0.12 M47.78,54.48l1.56,0.13
						c-0.11,0.28-0.22,0.56-0.32,0.84l-1.25-0.96L47.78,54.48z M52.92,44.86l2.85,2.78c0.19-0.2,0.39-0.39,0.59-0.59l-1.77-1.85
						l2.81,0.93c0.26-0.22,0.53-0.44,0.8-0.64l-2.37-3.19l-0.79,0.62l1.68,2.06l-2.91-0.97 M76.51,40.97
						c0.34,0.21,0.72,0.4,1.11,0.5c0.83,0.2,1.66,0.03,1.89-0.89c0.13-0.53-0.04-0.97-0.94-1.43c-0.41-0.2-0.49-0.35-0.45-0.51
						c0.06-0.24,0.27-0.36,0.74-0.25c0.2,0.05,0.53,0.2,0.75,0.35l0.44-0.62c-0.35-0.24-0.71-0.43-1.13-0.54
						c-0.71-0.17-1.61,0-1.81,0.81c-0.18,0.73,0.21,1.06,0.62,1.3c0.41,0.24,0.84,0.38,0.75,0.72c-0.09,0.35-0.42,0.33-0.72,0.26
						c-0.27-0.06-0.62-0.25-0.83-0.37L76.51,40.97z M82.07,40.68c-0.52,0.99-0.27,2.17,0.9,2.78c1.16,0.61,2.27,0.15,2.79-0.84
						c0.52-0.99,0.27-2.16-0.89-2.77C83.7,39.23,82.59,39.69,82.07,40.68z M82.98,41.16c0.39-0.75,0.99-0.88,1.5-0.61
						c0.51,0.27,0.75,0.83,0.35,1.58c-0.39,0.75-0.99,0.88-1.5,0.61C82.82,42.47,82.59,41.91,82.98,41.16z M95.44,65.24
						c-0.17,0.36-0.31,0.76-0.36,1.16c-0.1,0.85,0.17,1.65,1.11,1.77c0.54,0.06,0.96-0.15,1.3-1.11c0.15-0.44,0.29-0.53,0.45-0.51
						c0.24,0.03,0.39,0.23,0.34,0.7c-0.02,0.21-0.13,0.55-0.26,0.79l0.68,0.37c0.2-0.38,0.34-0.76,0.39-1.19
						c0.09-0.72-0.2-1.6-1.02-1.7c-0.74-0.09-1.03,0.34-1.22,0.77c-0.19,0.43-0.27,0.88-0.63,0.84c-0.36-0.04-0.38-0.38-0.34-0.69
						c0.03-0.27,0.17-0.64,0.27-0.87L95.44,65.24z M51.12,73.28c-0.02-0.4-0.08-0.82-0.23-1.2c-0.31-0.8-0.92-1.38-1.81-1.05
						c-0.51,0.19-0.78,0.58-0.64,1.58c0.07,0.45-0.01,0.6-0.16,0.66c-0.23,0.09-0.46-0.02-0.62-0.46c-0.07-0.2-0.14-0.55-0.14-0.82
						l-0.77-0.01c0,0.43,0.05,0.84,0.2,1.24c0.26,0.68,0.92,1.32,1.69,1.03c0.7-0.27,0.75-0.78,0.72-1.25
						c-0.04-0.47-0.17-0.9,0.17-1.03c0.34-0.13,0.51,0.16,0.62,0.45c0.1,0.25,0.15,0.65,0.16,0.89L51.12,73.28z M58.82,42.61
						c0.52,0.99,1.63,1.45,2.79,0.84c1.16-0.61,1.41-1.78,0.89-2.77c-0.52-0.99-1.63-1.45-2.79-0.84
						C58.55,40.45,58.3,41.62,58.82,42.61z M59.74,42.13c-0.39-0.75-0.16-1.31,0.35-1.58c0.51-0.27,1.11-0.14,1.5,0.61
						c0.39,0.75,0.16,1.31-0.35,1.58C60.73,43.01,60.13,42.88,59.74,42.13z M65.43,41.62c0.4,0.03,0.83,0.02,1.22-0.08
						c0.83-0.21,1.49-0.74,1.26-1.67c-0.13-0.53-0.49-0.85-1.5-0.82c-0.46,0.01-0.6-0.09-0.63-0.24c-0.06-0.24,0.07-0.45,0.54-0.56
						c0.2-0.05,0.56-0.07,0.83-0.04l0.1-0.76c-0.42-0.05-0.83-0.05-1.25,0.05c-0.71,0.18-1.43,0.75-1.23,1.56
						c0.18,0.72,0.68,0.84,1.15,0.86c0.47,0.02,0.92-0.06,1,0.29c0.09,0.35-0.22,0.49-0.52,0.57c-0.27,0.07-0.66,0.07-0.91,0.05
						L65.43,41.62z M72.29,39.78c0.54,0,0.97-0.44,0.97-0.97c0-0.54-0.44-0.97-0.97-0.97c-0.54,0-0.97,0.44-0.97,0.97
						C71.32,39.34,71.75,39.78,72.29,39.78z M92.05,50.15c0.3,0.44,0.91,0.55,1.35,0.25c0.44-0.3,0.55-0.91,0.25-1.35
						c-0.3-0.44-0.91-0.55-1.35-0.25C91.85,49.1,91.74,49.71,92.05,50.15z M71.32,88.76c0,0.54,0.44,0.97,0.97,0.97
						c0.54,0,0.97-0.43,0.97-0.97c0-0.54-0.44-0.97-0.97-0.97C71.75,87.79,71.32,88.23,71.32,88.76z M52.53,50.15
						c0.31-0.44,0.19-1.05-0.25-1.35c-0.44-0.3-1.05-0.2-1.35,0.25c-0.3,0.44-0.19,1.05,0.25,1.35
						C51.62,50.71,52.22,50.59,52.53,50.15z"/>
				</g>
				<g>
					<path class="st4" d="M75.98,67.48c-0.3,0.31-0.73,0.5-1.19,0.5h-0.98c-0.55,0-1.04,0.27-1.34,0.68h-0.36
						c-0.3-0.41-0.79-0.68-1.34-0.68h-0.98c-0.92,0-1.67-0.75-1.67-1.67v-6.7"/>
					<path class="st5" d="M68.12,59.61h8.34v6.7c0,0.46-0.18,0.87-0.48,1.17"/>
					<path d="M76.89,66.29c0,1.16-0.94,2.1-2.1,2.1h-0.98c-0.51,0-0.96,0.31-1.15,0.76h-0.75c-0.19-0.45-0.63-0.76-1.14-0.76h-0.98
						c-1.16,0-2.1-0.94-2.1-2.1v-7.11h9.21V66.29z M76.03,60.04h-7.49v6.25c0,0.68,0.56,1.24,1.24,1.24h0.98
						c0.6,0,1.13,0.25,1.51,0.65h0.03c0.38-0.4,0.91-0.65,1.51-0.65h0.98c0.69,0,1.24-0.56,1.24-1.24V60.04z"/>
				</g>
			</g>
			<g>
				<path d="M117.5,48.2h5.49v0.82h-0.15c-1.69,0-1.95,0.74-1.95,1.76v5.27c0,4.72-3.43,5.61-5.95,5.61c-3.81,0-6.22-1.65-6.22-4.89
					v-6.31c0-1.06-0.29-1.44-1.48-1.44h-0.36V48.2h6.63v0.82h-0.36c-0.89,0-1.5,0.4-1.5,1.44v6.31c0,2.58,1.9,3.47,3.83,3.47
					c2.78,0,4.15-1.56,4.15-3.89V51.2c0-1.5-0.43-2.18-1.74-2.18h-0.38V48.2z M126.35,59.02c0,0.78,0.36,1.12,0.97,1.12
					c0.51,0,0.99-0.32,1.61-1.06l0.3,0.59c-0.64,1.14-1.91,1.93-3.07,1.93c-1.44,0-2.4-0.81-2.4-2.62v-5.08h-1.12v-0.56
					c1.27-0.53,2.71-2.07,3.09-3.26h0.62v2.65h2.77l-0.32,1.17h-2.45V59.02z M136.09,61.36h-5.89v-0.68h0.15
					c0.87,0,1.18-0.38,1.18-1.48v-3.45c0-0.95-0.13-1.17-0.76-1.42l-0.57-0.24v-0.53l3.47-1.31h0.45v2.37h0.04
					c0.78-1.52,1.12-2.14,1.84-2.14c0.15,0,0.32,0.02,0.42,0.06l1.67,0.62c-0.25,0.89-0.59,1.65-1.01,2.24
					c-0.66-0.25-1.44-0.53-1.72-0.53c-0.42,0-0.78,0.3-1.25,0.95v3.43c0,1.02,0.32,1.42,1.42,1.42h0.55V61.36z M147.3,58.91
					c-1.18,1.67-2.9,2.69-4.53,2.69c-2.31,0-3.87-1.78-3.87-4.34c0-2.79,1.89-4.76,4.53-4.76c1.13,0,2.01,0.36,2.67,1.02
					c1.25,1.25,0.66,2.43,1.4,2.81v0.61h-5.86c0.17,1.76,1.35,3.09,2.6,3.09c0.78,0,1.54-0.44,2.58-1.53L147.3,58.91z M144.57,56.12
					c-0.02-1.63-0.59-2.62-1.51-2.62c-0.87,0-1.65,1.12-1.5,2.62H144.57z M157.53,59.33c-0.97,1.48-2.46,2.26-4.32,2.26
					c-2.58,0-4.45-1.76-4.45-4.19c0-2.77,2.39-4.91,5.48-4.91c1.82,0,3.2,0.76,3.2,1.8c0,0.63-0.42,1.06-1.08,1.06
					c-1.48,0-1.79-1.89-3.02-1.89c-1.06,0-1.78,1.29-1.78,3.19c0,2.29,1.08,3.83,2.65,3.83c0.96,0,1.84-0.48,2.71-1.5L157.53,59.33z
					 M162.12,59.23c0,1.33,0.36,1.46,1.1,1.46h0.21v0.68h-5.36v-0.68h0.3c1.08,0,1.16-0.42,1.16-1.55v-9.25
					c0-0.61-0.11-0.76-0.68-0.95l-0.61-0.21v-0.49l3.37-1.04h0.51v6.9c1.19-0.82,2.71-1.61,3.81-1.61c1.55,0,2.31,1.25,2.31,3.74
					v2.8c0,1.25,0.15,1.65,0.95,1.65h0.21v0.68h-4.99v-0.68h0.17c0.89,0,1.08-0.34,1.08-1.55v-3.2c0-1.14-0.53-1.86-1.37-1.86
					c-0.57,0-1.42,0.32-2.16,0.8V59.23z M174.02,59.02c0,0.78,0.36,1.12,0.97,1.12c0.51,0,0.99-0.32,1.61-1.06l0.3,0.59
					c-0.64,1.14-1.91,1.93-3.07,1.93c-1.44,0-2.39-0.81-2.39-2.62v-5.08h-1.12v-0.56c1.27-0.53,2.71-2.07,3.09-3.26h0.62v2.65h2.77
					l-0.31,1.17h-2.46V59.02z"/>
				<path d="M117.5,66.2h5.48v0.83h-0.15c-1.69,0-1.95,0.74-1.95,1.76v5.27c0,4.72-3.43,5.61-5.95,5.61c-3.81,0-6.22-1.65-6.22-4.89
					v-6.31c0-1.06-0.29-1.44-1.48-1.44h-0.36V66.2h6.63v0.83h-0.36c-0.89,0-1.51,0.4-1.51,1.44v6.31c0,2.58,1.91,3.47,3.83,3.47
					c2.78,0,4.15-1.57,4.15-3.9v-5.14c0-1.5-0.43-2.18-1.74-2.18h-0.38V66.2z M132.93,77.44c0,1.04,0.38,1.25,1.21,1.25v0.68h-5
					v-0.68c0.87-0.06,1.21-0.66,1.21-2.39v-1.84c0-1.69-0.47-2.35-1.31-2.35c-0.66,0-1.36,0.32-2.25,0.93v4.3
					c0,0.95,0.4,1.35,1.25,1.35h0.19v0.68h-5.35v-0.68H123c0.89,0,1.21-0.38,1.21-1.48v-4.13c0-0.47-0.25-0.74-1-0.95L122.77,72
					v-0.51l3.62-1.23h0.4v1.88c1.54-1.01,2.9-1.65,3.92-1.65c1.55,0,2.23,1.1,2.23,3.64V77.44z M140.83,79.37h-5.29v-0.68h0.23
					c0.87,0,1.18-0.38,1.18-1.48v-4.06c0-0.55-0.13-0.7-0.72-0.91l-0.7-0.26v-0.51l3.62-1.2h0.38v7.09c0,0.87,0.35,1.33,1.29,1.33
					V79.37z M139.84,66.9c0,0.85-0.81,1.44-1.67,1.44c-0.98,0-1.69-0.62-1.69-1.44c0-0.76,0.8-1.44,1.69-1.44
					C139.13,65.46,139.84,66.1,139.84,66.9z M141.06,70.73h5.38v0.68h-0.74c-0.45,0-0.63,0.4-0.27,1.18l1.88,4.22l1.65-3.73
					c0.49-1.1,0.24-1.52-1.25-1.67v-0.68h4.21v0.68c-1.1,0.1-1.37,0.38-1.78,1.27l-3.02,6.84h-1.27l-3.15-6.79
					c-0.4-0.87-0.7-1.21-1.63-1.31V70.73z M160.45,76.91c-1.19,1.67-2.9,2.69-4.53,2.69c-2.31,0-3.87-1.78-3.87-4.34
					c0-2.8,1.88-4.77,4.53-4.77c1.12,0,2.01,0.36,2.66,1.02c1.25,1.25,0.66,2.43,1.4,2.82v0.61h-5.86c0.17,1.76,1.35,3.09,2.6,3.09
					c0.78,0,1.54-0.44,2.58-1.52L160.45,76.91z M157.72,74.12c-0.02-1.63-0.59-2.62-1.5-2.62c-0.87,0-1.65,1.12-1.5,2.62H157.72z
					 M167.65,79.37h-5.88v-0.68h0.15c0.87,0,1.18-0.38,1.18-1.48v-3.45c0-0.95-0.13-1.16-0.76-1.42l-0.57-0.23v-0.53l3.47-1.31h0.45
					v2.37h0.05c0.78-1.52,1.12-2.14,1.84-2.14c0.15,0,0.32,0.02,0.42,0.06l1.67,0.62c-0.25,0.89-0.59,1.65-1.01,2.24
					c-0.66-0.25-1.44-0.53-1.72-0.53c-0.42,0-0.78,0.29-1.25,0.95v3.43c0,1.02,0.32,1.42,1.42,1.42h0.55V79.37z M170.99,76.87h0.68
					c0.36,1.19,1.29,1.82,2.2,1.82c0.59,0,1.1-0.45,1.1-0.97c0-1.46-3.97-1.97-3.97-4.53c0-1.61,1.33-2.69,3.32-2.69
					c0.81,0,1.49,0.13,2.37,0.45l0.04,2.26h-0.68c-0.38-1.16-1.08-1.8-1.99-1.8c-0.55,0-0.97,0.34-0.97,0.8
					c0,1.74,4.17,1.8,4.17,4.7c0,1.56-1.12,2.67-2.75,2.67c-1.46,0-1.95-0.3-2.25-0.3c-0.13,0-0.25,0.09-0.42,0.28h-0.61
					L170.99,76.87z M184.29,79.37h-5.29v-0.68h0.24c0.87,0,1.18-0.38,1.18-1.48v-4.06c0-0.55-0.12-0.7-0.72-0.91l-0.7-0.26v-0.51
					l3.62-1.2h0.38v7.09c0,0.87,0.36,1.33,1.29,1.33V79.37z M183.29,66.9c0,0.85-0.8,1.44-1.67,1.44c-0.97,0-1.69-0.62-1.69-1.44
					c0-0.76,0.8-1.44,1.69-1.44C182.59,65.46,183.29,66.1,183.29,66.9z M189.08,77.02c0,0.78,0.36,1.12,0.97,1.12
					c0.51,0,0.99-0.32,1.61-1.06l0.3,0.6c-0.63,1.14-1.9,1.92-3.07,1.92c-1.44,0-2.39-0.81-2.39-2.62V71.9h-1.12v-0.55
					c1.27-0.53,2.71-2.07,3.09-3.26h0.62v2.65h2.77l-0.32,1.16h-2.45V77.02z M198.08,79.15l-0.42,0.93
					c-1.12,2.45-2.24,1.14-3.21,2.12c-0.19,0.19-0.32,0.55-0.32,0.89c0,0.7,0.57,1.21,1.33,1.21c0.74,0,1.4-0.51,1.93-1.57
					l4.74-9.64c0.59-1.2,0.87-1.46,1.82-1.67v-0.68H200v0.68c1.27,0.02,1.54,0.74,1.1,1.65l-1.61,3.26l-1.76-3.64
					c-0.4-0.85-0.23-1.27,0.87-1.27v-0.68h-5.39v0.68c0.91,0,1.27,0.4,2.01,1.92L198.08,79.15z"/>
			</g>
		</g>
	</g>
	<rect x="272.13" y="0" class="st1" width="272.13" height="127.56"/>
	<g>
		<path d="M352.47,63.75c0,2.83-0.58,4.99-1.73,6.49s-2.81,2.24-4.97,2.24h-4.2V55.35h4.58c1.99,0,3.54,0.74,4.65,2.21
			S352.47,61.1,352.47,63.75z M349.2,63.85c0-3.83-1.05-5.74-3.16-5.74h-1.28v11.59h1.03c1.16,0,2.02-0.49,2.58-1.46
			S349.2,65.8,349.2,63.85z"/>
		<path d="M364.03,72.48l-0.98-4.32h-4.46l-0.98,4.32h-3.19l4.24-17.2h4.32l4.25,17.2H364.03z M362.45,65.33l-0.91-3.98
			c-0.05-0.24-0.18-0.85-0.37-1.82s-0.31-1.62-0.35-1.95c-0.1,0.67-0.23,1.41-0.39,2.22s-0.56,2.65-1.22,5.54H362.45z"/>
		<path d="M374.14,72.48h-3.18V58.15h-3.28v-2.8h9.74v2.8h-3.28V72.48z"/>
		<path d="M387.5,72.48l-0.98-4.32h-4.46l-0.98,4.32h-3.19l4.24-17.2h4.32l4.25,17.2H387.5z M385.92,65.33l-0.91-3.98
			c-0.05-0.24-0.18-0.85-0.37-1.82s-0.31-1.62-0.35-1.95c-0.1,0.67-0.23,1.41-0.39,2.22s-0.56,2.65-1.22,5.54H385.92z"/>
		<path d="M407.87,67.76c0,1.6-0.4,2.83-1.21,3.68s-1.97,1.28-3.5,1.28c-1.49,0-2.76-0.29-3.81-0.88v-3.15
			c1.28,0.84,2.46,1.25,3.53,1.25c0.61,0,1.07-0.17,1.38-0.5s0.46-0.79,0.46-1.37c0-0.57-0.18-1.09-0.55-1.56s-0.97-1-1.82-1.58
			c-0.73-0.51-1.29-0.99-1.67-1.46s-0.67-0.99-0.88-1.56s-0.31-1.25-0.31-2.02c0-1.47,0.41-2.63,1.22-3.49s1.91-1.29,3.29-1.29
			c1.31,0,2.57,0.37,3.79,1.1l-1.05,2.55c-0.38-0.22-0.77-0.41-1.18-0.59s-0.85-0.26-1.32-0.26c-0.52,0-0.91,0.17-1.19,0.51
			s-0.42,0.8-0.42,1.39c0,0.58,0.17,1.08,0.5,1.51s0.91,0.92,1.74,1.46c1.12,0.75,1.9,1.52,2.34,2.3S407.87,66.76,407.87,67.76z"/>
		<path d="M416.62,57.89c-0.91,0-1.63,0.54-2.16,1.61s-0.79,2.56-0.79,4.46c0,3.97,1.04,5.95,3.11,5.95c0.91,0,1.86-0.29,2.85-0.87
			v2.84c-0.84,0.55-1.91,0.83-3.21,0.83c-1.93,0-3.41-0.77-4.45-2.3s-1.55-3.69-1.55-6.47s0.53-4.95,1.6-6.5s2.55-2.33,4.45-2.33
			c0.62,0,1.22,0.09,1.8,0.26s1.19,0.47,1.85,0.9l-1.05,2.59c-0.35-0.24-0.73-0.46-1.12-0.66S417.09,57.89,416.62,57.89z"/>
		<path d="M433.59,72.48h-3.19v-7.51h-4.21v7.51h-3.19V55.35h3.19v6.81h4.21v-6.81h3.19V72.48z"/>
		<path d="M449.36,63.89c0,2.84-0.53,5.02-1.59,6.54s-2.58,2.29-4.56,2.29c-1.98,0-3.51-0.76-4.57-2.28s-1.59-3.71-1.59-6.57
			c0-2.84,0.53-5.01,1.59-6.52s2.59-2.27,4.59-2.27c1.98,0,3.49,0.76,4.55,2.28S449.36,61.06,449.36,63.89z M440.3,63.89
			c0,1.95,0.25,3.44,0.74,4.46s1.21,1.54,2.17,1.54c1.92,0,2.88-2,2.88-6s-0.95-6-2.86-6c-0.97,0-1.7,0.51-2.19,1.53
			S440.3,61.93,440.3,63.89z"/>
		<path d="M464.61,63.89c0,2.84-0.53,5.02-1.59,6.54s-2.58,2.29-4.56,2.29c-1.98,0-3.51-0.76-4.57-2.28s-1.59-3.71-1.59-6.57
			c0-2.84,0.53-5.01,1.59-6.52s2.59-2.27,4.59-2.27c1.98,0,3.49,0.76,4.55,2.28S464.61,61.06,464.61,63.89z M455.55,63.89
			c0,1.95,0.25,3.44,0.74,4.46s1.21,1.54,2.17,1.54c1.92,0,2.88-2,2.88-6s-0.95-6-2.86-6c-0.97,0-1.7,0.51-2.19,1.53
			S455.55,61.93,455.55,63.89z"/>
		<path d="M468.06,72.48V55.35h3.19v14.34h4.42v2.79H468.06z"/>
	</g>
</g>
<g id="Isolation_Mode">
</g>
</svg>
